<svg data-v-fde0c5aa="" xmlns="http://www.w3.org/2000/svg" viewBox="0 0 300 300" class="iconAbove"><!----><defs data-v-fde0c5aa=""><!----></defs><rect data-v-fde0c5aa="" fill="transparent" x="0" y="0" width="300px" height="300px" class="logo-background-square"></rect><defs data-v-fde0c5aa=""><linearGradient data-v-fde0c5aa="" gradientTransform="rotate(25)" id="e327e3d1-0be3-4ad8-afd9-498cd9961088" x1="0%" y1="0%" x2="100%" y2="0%"><stop data-v-fde0c5aa="" offset="0%" stop-color="#2F3A6A" stop-opacity="1"></stop><stop data-v-fde0c5aa="" offset="100%" stop-color="#E1E1E1" stop-opacity="1"></stop></linearGradient></defs><g data-v-fde0c5aa="" id="82961647-f9fa-4e91-8d50-f59da4d8813a" fill="url(#e327e3d1-0be3-4ad8-afd9-498cd9961088)" transform="matrix(3.9113826751708984,0,0,3.9113826751708984,17.26508785332315,181.53628724216958)"><path d="M3.60 9.72C2.23 9.72 1.76 8.93 1.76 7.43L6.38 7.43L6.44 6.64C6.44 4.34 5.49 3.36 3.63 3.36C1.85 3.36 0.70 4.38 0.70 7.04C0.70 9.42 1.39 10.64 3.47 10.64C4.61 10.64 6.20 10.42 6.20 10.42L6.17 9.59C6.17 9.59 4.65 9.72 3.60 9.72ZM1.75 6.59C1.76 4.90 2.44 4.24 3.63 4.24C4.86 4.24 5.39 4.86 5.39 6.59ZM7.43 3.50L9.10 10.50L10.85 10.50L12.33 5.03L13.82 10.50L15.57 10.50L17.23 3.50L16.18 3.50L14.78 9.59L14.55 9.59L12.88 3.64L11.79 3.64L10.12 9.59L9.90 9.59L8.48 3.50ZM23.55 5.61C23.55 4.09 22.88 3.36 21.29 3.36C20.09 3.36 18.55 3.67 18.55 3.67L18.59 4.47C18.59 4.47 20.26 4.28 21.24 4.28C22.08 4.28 22.50 4.63 22.50 5.61L22.50 6.22L20.30 6.43C18.86 6.57 18.16 7.15 18.16 8.50C18.16 9.91 18.86 10.64 20.13 10.64C21.39 10.64 22.65 10.08 22.65 10.08C23.07 10.50 23.58 10.64 24.32 10.64L24.36 9.81C23.91 9.76 23.58 9.60 23.55 9.20ZM22.50 7.01L22.50 9.32C22.50 9.32 21.34 9.76 20.30 9.76C19.59 9.76 19.24 9.28 19.24 8.47C19.24 7.70 19.57 7.29 20.43 7.21ZM25.62 13.61L26.67 13.61L26.67 10.49C26.87 10.53 27.58 10.64 28.24 10.64C30.39 10.64 31.29 9.66 31.29 6.92C31.29 4.44 30.52 3.36 28.76 3.36C27.72 3.36 26.66 4.00 26.66 4.00L26.66 3.50L25.62 3.50ZM28.60 4.30C29.62 4.30 30.23 5.00 30.23 6.92C30.23 8.93 29.72 9.73 28.18 9.73C27.58 9.73 26.85 9.60 26.67 9.58L26.67 4.86C26.67 4.86 27.65 4.30 28.60 4.30ZM35.69 3.36C33.47 3.36 32.69 4.51 32.69 6.92C32.69 9.46 33.33 10.64 35.69 10.64C38.05 10.64 38.68 9.46 38.68 6.92C38.68 4.51 37.91 3.36 35.69 3.36ZM35.69 9.73C34.03 9.73 33.77 8.90 33.77 6.92C33.77 4.97 34.20 4.27 35.69 4.27C37.18 4.27 37.60 4.97 37.60 6.92C37.60 8.90 37.35 9.73 35.69 9.73ZM40.39 10.50L41.44 10.50L41.44 5.36C41.44 5.36 42.67 4.68 43.99 4.41L43.99 3.35C42.64 3.61 41.43 4.45 41.43 4.45L41.43 3.50L40.39 3.50ZM50.18 5.61C50.18 4.09 49.50 3.36 47.92 3.36C46.72 3.36 45.18 3.67 45.18 3.67L45.22 4.47C45.22 4.47 46.89 4.28 47.87 4.28C48.71 4.28 49.13 4.63 49.13 5.61L49.13 6.22L46.93 6.43C45.49 6.57 44.79 7.15 44.79 8.50C44.79 9.91 45.49 10.64 46.76 10.64C48.02 10.64 49.28 10.08 49.28 10.08C49.70 10.50 50.20 10.64 50.95 10.64L50.99 9.81C50.54 9.76 50.20 9.60 50.18 9.20ZM49.13 7.01L49.13 9.32C49.13 9.32 47.96 9.76 46.93 9.76C46.21 9.76 45.86 9.28 45.86 8.47C45.86 7.70 46.20 7.29 47.05 7.21ZM54.87 3.36C52.78 3.36 51.95 4.34 51.95 6.87C51.95 9.62 52.61 10.64 54.84 10.64C55.48 10.64 56.78 10.44 56.78 10.44L56.74 9.58C56.74 9.58 55.62 9.70 55.09 9.70C53.35 9.70 53.03 8.95 53.03 6.87C53.03 5.00 53.47 4.30 55.08 4.30C55.61 4.30 56.73 4.42 56.73 4.42L56.77 3.57C56.77 3.57 55.51 3.36 54.87 3.36ZM58.37 10.32C58.37 11.66 58.07 11.98 56.66 12.81L57.08 13.62C58.94 12.67 59.40 12.05 59.40 10.33L59.40 3.50L58.37 3.50ZM58.37 1.92L59.40 1.92L59.40 0.70L58.37 0.70ZM66.36 5.61C66.36 4.09 65.69 3.36 64.11 3.36C62.90 3.36 61.36 3.67 61.36 3.67L61.40 4.47C61.40 4.47 63.07 4.28 64.05 4.28C64.89 4.28 65.31 4.63 65.31 5.61L65.31 6.22L63.11 6.43C61.67 6.57 60.97 7.15 60.97 8.50C60.97 9.91 61.67 10.64 62.94 10.64C64.20 10.64 65.46 10.08 65.46 10.08C65.88 10.50 66.39 10.64 67.13 10.64L67.17 9.81C66.72 9.76 66.39 9.60 66.36 9.20ZM65.31 7.01L65.31 9.32C65.31 9.32 64.15 9.76 63.11 9.76C62.40 9.76 62.05 9.28 62.05 8.47C62.05 7.70 62.38 7.29 63.24 7.21Z"></path></g><defs data-v-fde0c5aa=""><linearGradient data-v-fde0c5aa="" gradientTransform="rotate(25)" id="876d9369-a9a6-407a-986c-bf61b5071292" x1="0%" y1="0%" x2="100%" y2="0%"><stop data-v-fde0c5aa="" offset="0%" stop-color="#2F3A6A" stop-opacity="1"></stop><stop data-v-fde0c5aa="" offset="100%" stop-color="#E1E1E1" stop-opacity="1"></stop></linearGradient></defs><g data-v-fde0c5aa="" id="4191b608-0986-4dff-9e77-0ca2a79b4c96" stroke="none" fill="url(#876d9369-a9a6-407a-986c-bf61b5071292)" transform="matrix(1.6847466230392456,0,0,1.6847466230392456,96.08810797046091,61.816908581614456)"><path d="M23.586 2L11 14.586V52h2V16h12V4h26v46h2V2zm-9.172 12L23 5.414V14z"></path><path d="M17 46h2v16h-2zM24 34h2v16h-2zM31 48h2v12h-2zM24 52h2v4h-2zM45 41h2v15h-2zM38 30h2v16h-2zM38 48h2v4h-2zM45 58h2v4h-2zM51 60h2v2h-2zM51 56h2v2h-2zM51 52h2v2h-2zM11 54h2v2h-2z"></path></g><!----></svg>